<?xml version="1.0" encoding="utf-8"?>
<!-- Generator: Adobe Illustrator 21.0.0, SVG Export Plug-In . SVG Version: 6.00 Build 0)  -->
<svg version="1.1" id="Layer_1" xmlns="http://www.w3.org/2000/svg" xmlns:xlink="http://www.w3.org/1999/xlink" x="0px" y="0px"
	 viewBox="0 0 308 116" style="enable-background:new 0 0 308 116;" xml:space="preserve">
<style type="text/css">
	.st0{fill:#0336A9;}
	.st1{fill:#0443B5;}
	.st2{fill:#0667D0;}
	.st3{fill:#028ACA;}
	.st4{fill:#0DAEF2;}
	.st5{fill:#11C9FD;}
	.st6{fill:#EBEBEB;}
</style>
<path class="st0" d="M51.4,87.5l34.8-20.9L51.4,116V87.5z"/>
<path class="st1" d="M51.5,42.6v36.9l35.1-20.9L51.5,42.6z"/>
<path class="st2" d="M51.5,0v43l35.1,16L51.5,0z"/>
<path class="st3" d="M51.5,87.5L16.8,66.5L51.5,116V87.5z"/>
<path class="st4" d="M52.5,42.6v36.9L17.4,58.5C17.4,58.5,52.5,42.6,52.5,42.6z"/>
<path class="st5" d="M52.5,0v43L17.4,59L52.5,0z"/>
<path class="st1" d="M29.2,83.3c0,0-25.2,4.5-22-9.8c3.2-14.2,25.1-37.1,54.4-47c29.3-9.9,33.5,3.7,20.8,22.9
	C105.2,22.9,84.1,17,84.1,17S56.8,6.6,24.6,35.8C-7.6,65.1-10.4,100.4,29.2,83.3z"/>
<path class="st6" d="M36.5,26.6c0,0,10.9-7,16.5-8.1c-10.2,2-14,4-14,4S36.5,26.6,36.5,26.6z"/>
<path class="st0" d="M120.3,76h-4.4v-9.1h-8.6V76h-4.4V54.7h4.4v8.6h8.6v-8.6h4.4V76z"/>
<path class="st0" d="M124.1,76V54.7h7.5c2.6,0,4.6,0.5,5.9,1.5c1.3,1,2,2.4,2,4.4c0,1-0.3,2-0.8,2.8c-0.5,0.8-1.3,1.4-2.2,1.8
	c1.1,0.3,2,0.8,2.6,1.7s0.9,1.8,0.9,3c0,2.1-0.7,3.6-2,4.7s-3.2,1.6-5.6,1.6H124.1z M128.5,63.6h3.3c2.2,0,3.3-0.9,3.3-2.7
	c0-1-0.3-1.7-0.8-2.1c-0.6-0.4-1.4-0.6-2.7-0.6h-3.1V63.6z M128.5,66.7v5.8h3.8c1,0,1.8-0.2,2.4-0.7s0.9-1.2,0.9-2c0-2-1-2.9-3-3
	H128.5z"/>
<path class="st0" d="M163.5,66.8h-8.4v5.7h9.9V76h-14.3V54.7H165v3.6h-9.9v5.1h8.4V66.8z"/>
<path class="st0" d="M175.2,62l4-7.4h5.1l-6.2,10.6l6.4,10.8h-5.1l-4.1-7.5l-4.1,7.5H166l6.4-10.8l-6.2-10.6h5.1L175.2,62z"/>
<path class="st0" d="M191,68.5V76h-4.4V54.7h8.3c1.6,0,3,0.3,4.2,0.9c1.2,0.6,2.2,1.4,2.8,2.5s1,2.3,1,3.7c0,2.1-0.7,3.7-2.1,4.9
	c-1.4,1.2-3.4,1.8-5.9,1.8H191z M191,64.9h3.9c1.2,0,2-0.3,2.7-0.8c0.6-0.5,0.9-1.3,0.9-2.3c0-1-0.3-1.9-0.9-2.5s-1.5-1-2.5-1h-4
	V64.9z"/>
<path class="st0" d="M210.4,72.5h9.3V76H206V54.7h4.4V72.5z"/>
<path class="st0" d="M238.8,65.8c0,2.1-0.4,3.9-1.1,5.5s-1.8,2.8-3.2,3.7c-1.4,0.9-3,1.3-4.8,1.3c-1.8,0-3.3-0.4-4.7-1.3
	s-2.5-2.1-3.2-3.6s-1.1-3.4-1.2-5.4v-1.1c0-2.1,0.4-3.9,1.1-5.5c0.8-1.6,1.8-2.8,3.2-3.7c1.4-0.9,3-1.3,4.7-1.3s3.4,0.4,4.7,1.3
	c1.4,0.9,2.5,2.1,3.2,3.7c0.8,1.6,1.1,3.4,1.1,5.5V65.8z M234.4,64.9c0-2.2-0.4-3.9-1.2-5.1s-1.9-1.7-3.4-1.7
	c-1.5,0-2.6,0.6-3.4,1.7c-0.8,1.1-1.2,2.8-1.2,5v1c0,2.2,0.4,3.9,1.2,5.1s2,1.8,3.5,1.8c1.5,0,2.6-0.6,3.4-1.7
	c0.8-1.2,1.2-2.8,1.2-5.1V64.9z"/>
<path class="st0" d="M249.9,68.2h-3.5V76H242V54.7h7.9c2.5,0,4.5,0.6,5.8,1.7s2.1,2.7,2.1,4.8c0,1.5-0.3,2.7-0.9,3.6
	c-0.6,1-1.6,1.7-2.9,2.3l4.6,8.7V76h-4.7L249.9,68.2z M246.4,64.6h3.5c1.1,0,2-0.3,2.6-0.8s0.9-1.3,0.9-2.3c0-1-0.3-1.8-0.9-2.4
	c-0.6-0.6-1.4-0.9-2.6-0.9h-3.5V64.6z"/>
<path class="st0" d="M274,66.8h-8.4v5.7h9.9V76h-14.3V54.7h14.3v3.6h-9.9v5.1h8.4V66.8z"/>
<path class="st0" d="M285.9,68.2h-3.5V76H278V54.7h7.9c2.5,0,4.5,0.6,5.8,1.7s2.1,2.7,2.1,4.8c0,1.5-0.3,2.7-0.9,3.6
	c-0.6,1-1.6,1.7-2.9,2.3l4.6,8.7V76h-4.7L285.9,68.2z M282.4,64.6h3.5c1.1,0,2-0.3,2.6-0.8s0.9-1.3,0.9-2.3c0-1-0.3-1.8-0.9-2.4
	c-0.6-0.6-1.4-0.9-2.6-0.9h-3.5V64.6z"/>
</svg>
