<?xml version="1.0" encoding="utf-8"?>
<!-- Generator: Adobe Illustrator 21.0.0, SVG Export Plug-In . SVG Version: 6.00 Build 0)  -->
<svg version="1.1" id="Layer_1" xmlns="http://www.w3.org/2000/svg" xmlns:xlink="http://www.w3.org/1999/xlink" x="0px" y="0px"
	 viewBox="0 0 308 116" style="enable-background:new 0 0 308 116;" xml:space="preserve">
<style type="text/css">
	.st0{fill:#0336A9;}
	.st1{fill:#0443B5;}
	.st2{fill:#0667D0;}
	.st3{fill:#028ACA;}
	.st4{fill:#0DAEF2;}
	.st5{fill:#11C9FD;}
	.st6{fill:#EBEBEB;}
</style>
<path class="st0" d="M51.4,87.5l34.8-20.9L51.4,116V87.5z"/>
<path class="st1" d="M51.5,42.6v36.9l35.1-20.9L51.5,42.6z"/>
<path class="st2" d="M51.5,0v43l35.1,16L51.5,0z"/>
<path class="st3" d="M51.5,87.5L16.8,66.5L51.5,116V87.5z"/>
<path class="st4" d="M52.5,42.6v36.9L17.4,58.5C17.4,58.5,52.5,42.6,52.5,42.6z"/>
<path class="st5" d="M52.5,0v43L17.4,59L52.5,0z"/>
<path class="st1" d="M29.2,83.3c0,0-25.2,4.5-22-9.8c3.2-14.2,25.1-37.1,54.4-47c29.3-9.9,33.5,3.7,20.8,22.9
	C105.2,22.9,84.1,17,84.1,17S56.8,6.6,24.6,35.8C-7.6,65.1-10.4,100.4,29.2,83.3z"/>
<path class="st6" d="M36.5,26.6c0,0,10.9-7,16.5-8.1c-10.2,2-14,4-14,4S36.5,26.6,36.5,26.6z"/>
</svg>
